<?xml version="1.0" standalone="no"?>
<!DOCTYPE svg PUBLIC "-//W3C//DTD SVG 20010904//EN"
 "http://www.w3.org/TR/2001/REC-SVG-20010904/DTD/svg10.dtd">
<svg version="1.0" xmlns="http://www.w3.org/2000/svg"
 width="741.000000pt" height="162.000000pt" viewBox="0 0 741.000000 162.000000"
 preserveAspectRatio="xMidYMid meet">

<g transform="translate(0.000000,162.000000) scale(0.100000,-0.100000)"
fill="#000000" stroke="none">
<path d="M1923 1285 c-16 -7 -33 -20 -37 -30 -3 -9 -6 -150 -6 -313 0 -170 -4
-313 -10 -334 -13 -44 -75 -103 -120 -113 -70 -15 -147 20 -180 84 -16 33 -20
59 -20 149 0 95 -3 113 -21 136 -25 31 -75 35 -109 8 -21 -17 -22 -25 -21
-147 2 -150 9 -183 52 -248 62 -93 165 -143 282 -135 128 9 232 86 277 204 19
51 20 77 20 375 0 190 -4 328 -10 339 -15 28 -61 40 -97 25z"/>
<path d="M2140 1270 c-19 -19 -20 -33 -20 -262 0 -234 1 -245 24 -293 28 -60
56 -87 116 -114 39 -18 66 -21 210 -21 91 0 182 5 203 11 48 13 112 70 139
123 17 32 22 60 22 129 1 82 -1 90 -23 108 -35 28 -85 25 -110 -7 -17 -21 -21
-41 -21 -94 0 -64 -2 -70 -31 -94 -30 -25 -34 -26 -174 -26 -138 0 -145 1
-172 24 l-28 24 -5 242 c-5 224 -6 243 -24 256 -29 21 -82 18 -106 -6z"/>
<path d="M3186 1191 c-28 -30 -24 -80 8 -108 35 -30 71 -29 101 2 30 30 32 64
4 99 -26 33 -86 37 -113 7z"/>
<path d="M4878 1193 c-48 -56 -12 -133 61 -133 55 0 87 77 51 123 -26 33 -87
38 -112 10z"/>
<path d="M5445 1111 c-86 -39 -135 -117 -135 -216 0 -76 24 -130 78 -176 102
-88 238 -82 329 13 72 75 86 179 37 276 -26 50 -36 61 -93 90 -76 38 -151 43
-216 13z"/>
<path d="M2944 949 c-17 -19 -19 -38 -19 -193 0 -163 1 -173 26 -226 36 -77
80 -124 147 -157 50 -24 69 -28 147 -28 81 0 96 3 144 30 66 36 126 103 148
164 l16 46 326 0 326 0 46 27 c81 48 109 106 109 229 0 103 -15 129 -74 129
-52 0 -76 -36 -76 -116 0 -124 1 -124 -325 -124 -328 0 -325 -1 -325 129 0 58
-3 71 -23 89 -27 25 -74 29 -103 8 -17 -13 -20 -31 -24 -178 -6 -182 -14 -207
-75 -254 -49 -37 -108 -42 -164 -12 -80 41 -85 56 -91 248 -4 147 -7 171 -24
189 -26 29 -86 29 -112 0z"/>
<path d="M4551 944 c-20 -25 -21 -40 -21 -210 0 -182 0 -183 -26 -213 -18 -22
-35 -31 -55 -31 -37 0 -79 -39 -79 -73 0 -13 9 -36 21 -51 42 -53 164 -26 231
53 54 64 63 109 63 324 0 186 0 189 -24 208 -35 28 -85 25 -110 -7z"/>
<path d="M4879 951 c-23 -19 -24 -24 -29 -213 -3 -106 -9 -200 -13 -209 -9
-19 -49 -39 -76 -39 -35 0 -65 -34 -65 -75 0 -75 83 -98 181 -50 106 53 133
131 133 381 0 158 -2 173 -21 198 -25 32 -75 35 -110 7z"/>
<path d="M2381 464 c-12 -15 -21 -37 -21 -49 0 -12 9 -34 21 -49 20 -25 24
-26 120 -26 77 0 99 -3 99 -14 0 -7 9 -25 21 -40 25 -31 76 -35 108 -8 42 35
36 178 -9 202 -10 6 -86 10 -169 10 l-150 0 -20 -26z"/>
<path d="M3912 467 c-28 -29 -28 -76 -2 -105 20 -21 29 -22 175 -22 142 0 157
2 175 20 27 27 27 83 -2 110 -20 18 -35 20 -173 20 -145 0 -152 -1 -173 -23z"/>
</g>
</svg>
